<?xml version="1.0" encoding="utf-8" standalone="no"?>
<!DOCTYPE svg PUBLIC "-//W3C//DTD SVG 1.1//EN"
  "http://www.w3.org/Graphics/SVG/1.1/DTD/svg11.dtd">
<svg xmlns:xlink="http://www.w3.org/1999/xlink" width="460.8pt" height="345.6pt" viewBox="0 0 460.8 345.6" xmlns="http://www.w3.org/2000/svg" version="1.1">
 <metadata>
  <rdf:RDF xmlns:dc="http://purl.org/dc/elements/1.1/" xmlns:cc="http://creativecommons.org/ns#" xmlns:rdf="http://www.w3.org/1999/02/22-rdf-syntax-ns#">
   <cc:Work>
    <dc:type rdf:resource="http://purl.org/dc/dcmitype/StillImage"/>
    <dc:date>2023-05-30T17:00:51.120603</dc:date>
    <dc:format>image/svg+xml</dc:format>
    <dc:creator>
     <cc:Agent>
      <dc:title>Matplotlib v3.5.1, https://matplotlib.org/</dc:title>
     </cc:Agent>
    </dc:creator>
   </cc:Work>
  </rdf:RDF>
 </metadata>
 <defs>
  <style type="text/css">*{stroke-linejoin: round; stroke-linecap: butt}</style>
 </defs>
 <g id="figure_1">
  <g id="patch_1">
   <path d="M 0 345.6 
L 460.8 345.6 
L 460.8 0 
L 0 0 
z
" style="fill: #ffffff"/>
  </g>
  <g id="axes_1">
   <g id="patch_2">
    <path d="M 57.6 307.584 
L 414.72 307.584 
L 414.72 41.472 
L 57.6 41.472 
z
" style="fill: #ffffff"/>
   </g>
   <g id="matplotlib.axis_1">
    <g id="xtick_1">
     <g id="line2d_1">
      <defs>
       <path id="ma120d5ab8d" d="M 0 0 
L 0 3.5 
" style="stroke: #000000; stroke-width: 0.8"/>
      </defs>
      <g>
       <use xlink:href="#ma120d5ab8d" x="73.832727" y="307.584" style="stroke: #000000; stroke-width: 0.8"/>
      </g>
     </g>
     <g id="text_1">
      <!-- 0 -->
      <g transform="translate(70.651477 322.182437)scale(0.1 -0.1)">
       <defs>
        <path id="DejaVuSans-30" d="M 2034 4250 
Q 1547 4250 1301 3770 
Q 1056 3291 1056 2328 
Q 1056 1369 1301 889 
Q 1547 409 2034 409 
Q 2525 409 2770 889 
Q 3016 1369 3016 2328 
Q 3016 3291 2770 3770 
Q 2525 4250 2034 4250 
z
M 2034 4750 
Q 2819 4750 3233 4129 
Q 3647 3509 3647 2328 
Q 3647 1150 3233 529 
Q 2819 -91 2034 -91 
Q 1250 -91 836 529 
Q 422 1150 422 2328 
Q 422 3509 836 4129 
Q 1250 4750 2034 4750 
z
" transform="scale(0.015625)"/>
       </defs>
       <use xlink:href="#DejaVuSans-30"/>
      </g>
     </g>
    </g>
    <g id="xtick_2">
     <g id="line2d_2">
      <g>
       <use xlink:href="#ma120d5ab8d" x="138.828632" y="307.584" style="stroke: #000000; stroke-width: 0.8"/>
      </g>
     </g>
     <g id="text_2">
      <!-- 200 -->
      <g transform="translate(129.284882 322.182437)scale(0.1 -0.1)">
       <defs>
        <path id="DejaVuSans-32" d="M 1228 531 
L 3431 531 
L 3431 0 
L 469 0 
L 469 531 
Q 828 903 1448 1529 
Q 2069 2156 2228 2338 
Q 2531 2678 2651 2914 
Q 2772 3150 2772 3378 
Q 2772 3750 2511 3984 
Q 2250 4219 1831 4219 
Q 1534 4219 1204 4116 
Q 875 4013 500 3803 
L 500 4441 
Q 881 4594 1212 4672 
Q 1544 4750 1819 4750 
Q 2544 4750 2975 4387 
Q 3406 4025 3406 3419 
Q 3406 3131 3298 2873 
Q 3191 2616 2906 2266 
Q 2828 2175 2409 1742 
Q 1991 1309 1228 531 
z
" transform="scale(0.015625)"/>
       </defs>
       <use xlink:href="#DejaVuSans-32"/>
       <use xlink:href="#DejaVuSans-30" x="63.623047"/>
       <use xlink:href="#DejaVuSans-30" x="127.246094"/>
      </g>
     </g>
    </g>
    <g id="xtick_3">
     <g id="line2d_3">
      <g>
       <use xlink:href="#ma120d5ab8d" x="203.824537" y="307.584" style="stroke: #000000; stroke-width: 0.8"/>
      </g>
     </g>
     <g id="text_3">
      <!-- 400 -->
      <g transform="translate(194.280787 322.182437)scale(0.1 -0.1)">
       <defs>
        <path id="DejaVuSans-34" d="M 2419 4116 
L 825 1625 
L 2419 1625 
L 2419 4116 
z
M 2253 4666 
L 3047 4666 
L 3047 1625 
L 3713 1625 
L 3713 1100 
L 3047 1100 
L 3047 0 
L 2419 0 
L 2419 1100 
L 313 1100 
L 313 1709 
L 2253 4666 
z
" transform="scale(0.015625)"/>
       </defs>
       <use xlink:href="#DejaVuSans-34"/>
       <use xlink:href="#DejaVuSans-30" x="63.623047"/>
       <use xlink:href="#DejaVuSans-30" x="127.246094"/>
      </g>
     </g>
    </g>
    <g id="xtick_4">
     <g id="line2d_4">
      <g>
       <use xlink:href="#ma120d5ab8d" x="268.820442" y="307.584" style="stroke: #000000; stroke-width: 0.8"/>
      </g>
     </g>
     <g id="text_4">
      <!-- 600 -->
      <g transform="translate(259.276692 322.182437)scale(0.1 -0.1)">
       <defs>
        <path id="DejaVuSans-36" d="M 2113 2584 
Q 1688 2584 1439 2293 
Q 1191 2003 1191 1497 
Q 1191 994 1439 701 
Q 1688 409 2113 409 
Q 2538 409 2786 701 
Q 3034 994 3034 1497 
Q 3034 2003 2786 2293 
Q 2538 2584 2113 2584 
z
M 3366 4563 
L 3366 3988 
Q 3128 4100 2886 4159 
Q 2644 4219 2406 4219 
Q 1781 4219 1451 3797 
Q 1122 3375 1075 2522 
Q 1259 2794 1537 2939 
Q 1816 3084 2150 3084 
Q 2853 3084 3261 2657 
Q 3669 2231 3669 1497 
Q 3669 778 3244 343 
Q 2819 -91 2113 -91 
Q 1303 -91 875 529 
Q 447 1150 447 2328 
Q 447 3434 972 4092 
Q 1497 4750 2381 4750 
Q 2619 4750 2861 4703 
Q 3103 4656 3366 4563 
z
" transform="scale(0.015625)"/>
       </defs>
       <use xlink:href="#DejaVuSans-36"/>
       <use xlink:href="#DejaVuSans-30" x="63.623047"/>
       <use xlink:href="#DejaVuSans-30" x="127.246094"/>
      </g>
     </g>
    </g>
    <g id="xtick_5">
     <g id="line2d_5">
      <g>
       <use xlink:href="#ma120d5ab8d" x="333.816347" y="307.584" style="stroke: #000000; stroke-width: 0.8"/>
      </g>
     </g>
     <g id="text_5">
      <!-- 800 -->
      <g transform="translate(324.272597 322.182437)scale(0.1 -0.1)">
       <defs>
        <path id="DejaVuSans-38" d="M 2034 2216 
Q 1584 2216 1326 1975 
Q 1069 1734 1069 1313 
Q 1069 891 1326 650 
Q 1584 409 2034 409 
Q 2484 409 2743 651 
Q 3003 894 3003 1313 
Q 3003 1734 2745 1975 
Q 2488 2216 2034 2216 
z
M 1403 2484 
Q 997 2584 770 2862 
Q 544 3141 544 3541 
Q 544 4100 942 4425 
Q 1341 4750 2034 4750 
Q 2731 4750 3128 4425 
Q 3525 4100 3525 3541 
Q 3525 3141 3298 2862 
Q 3072 2584 2669 2484 
Q 3125 2378 3379 2068 
Q 3634 1759 3634 1313 
Q 3634 634 3220 271 
Q 2806 -91 2034 -91 
Q 1263 -91 848 271 
Q 434 634 434 1313 
Q 434 1759 690 2068 
Q 947 2378 1403 2484 
z
M 1172 3481 
Q 1172 3119 1398 2916 
Q 1625 2713 2034 2713 
Q 2441 2713 2670 2916 
Q 2900 3119 2900 3481 
Q 2900 3844 2670 4047 
Q 2441 4250 2034 4250 
Q 1625 4250 1398 4047 
Q 1172 3844 1172 3481 
z
" transform="scale(0.015625)"/>
       </defs>
       <use xlink:href="#DejaVuSans-38"/>
       <use xlink:href="#DejaVuSans-30" x="63.623047"/>
       <use xlink:href="#DejaVuSans-30" x="127.246094"/>
      </g>
     </g>
    </g>
    <g id="xtick_6">
     <g id="line2d_6">
      <g>
       <use xlink:href="#ma120d5ab8d" x="398.812252" y="307.584" style="stroke: #000000; stroke-width: 0.8"/>
      </g>
     </g>
     <g id="text_6">
      <!-- 1000 -->
      <g transform="translate(386.087252 322.182437)scale(0.1 -0.1)">
       <defs>
        <path id="DejaVuSans-31" d="M 794 531 
L 1825 531 
L 1825 4091 
L 703 3866 
L 703 4441 
L 1819 4666 
L 2450 4666 
L 2450 531 
L 3481 531 
L 3481 0 
L 794 0 
L 794 531 
z
" transform="scale(0.015625)"/>
       </defs>
       <use xlink:href="#DejaVuSans-31"/>
       <use xlink:href="#DejaVuSans-30" x="63.623047"/>
       <use xlink:href="#DejaVuSans-30" x="127.246094"/>
       <use xlink:href="#DejaVuSans-30" x="190.869141"/>
      </g>
     </g>
    </g>
    <g id="text_7">
     <!-- Epochs -->
     <g transform="translate(218.244375 335.860562)scale(0.1 -0.1)">
      <defs>
       <path id="DejaVuSans-45" d="M 628 4666 
L 3578 4666 
L 3578 4134 
L 1259 4134 
L 1259 2753 
L 3481 2753 
L 3481 2222 
L 1259 2222 
L 1259 531 
L 3634 531 
L 3634 0 
L 628 0 
L 628 4666 
z
" transform="scale(0.015625)"/>
       <path id="DejaVuSans-70" d="M 1159 525 
L 1159 -1331 
L 581 -1331 
L 581 3500 
L 1159 3500 
L 1159 2969 
Q 1341 3281 1617 3432 
Q 1894 3584 2278 3584 
Q 2916 3584 3314 3078 
Q 3713 2572 3713 1747 
Q 3713 922 3314 415 
Q 2916 -91 2278 -91 
Q 1894 -91 1617 61 
Q 1341 213 1159 525 
z
M 3116 1747 
Q 3116 2381 2855 2742 
Q 2594 3103 2138 3103 
Q 1681 3103 1420 2742 
Q 1159 2381 1159 1747 
Q 1159 1113 1420 752 
Q 1681 391 2138 391 
Q 2594 391 2855 752 
Q 3116 1113 3116 1747 
z
" transform="scale(0.015625)"/>
       <path id="DejaVuSans-6f" d="M 1959 3097 
Q 1497 3097 1228 2736 
Q 959 2375 959 1747 
Q 959 1119 1226 758 
Q 1494 397 1959 397 
Q 2419 397 2687 759 
Q 2956 1122 2956 1747 
Q 2956 2369 2687 2733 
Q 2419 3097 1959 3097 
z
M 1959 3584 
Q 2709 3584 3137 3096 
Q 3566 2609 3566 1747 
Q 3566 888 3137 398 
Q 2709 -91 1959 -91 
Q 1206 -91 779 398 
Q 353 888 353 1747 
Q 353 2609 779 3096 
Q 1206 3584 1959 3584 
z
" transform="scale(0.015625)"/>
       <path id="DejaVuSans-63" d="M 3122 3366 
L 3122 2828 
Q 2878 2963 2633 3030 
Q 2388 3097 2138 3097 
Q 1578 3097 1268 2742 
Q 959 2388 959 1747 
Q 959 1106 1268 751 
Q 1578 397 2138 397 
Q 2388 397 2633 464 
Q 2878 531 3122 666 
L 3122 134 
Q 2881 22 2623 -34 
Q 2366 -91 2075 -91 
Q 1284 -91 818 406 
Q 353 903 353 1747 
Q 353 2603 823 3093 
Q 1294 3584 2113 3584 
Q 2378 3584 2631 3529 
Q 2884 3475 3122 3366 
z
" transform="scale(0.015625)"/>
       <path id="DejaVuSans-68" d="M 3513 2113 
L 3513 0 
L 2938 0 
L 2938 2094 
Q 2938 2591 2744 2837 
Q 2550 3084 2163 3084 
Q 1697 3084 1428 2787 
Q 1159 2491 1159 1978 
L 1159 0 
L 581 0 
L 581 4863 
L 1159 4863 
L 1159 2956 
Q 1366 3272 1645 3428 
Q 1925 3584 2291 3584 
Q 2894 3584 3203 3211 
Q 3513 2838 3513 2113 
z
" transform="scale(0.015625)"/>
       <path id="DejaVuSans-73" d="M 2834 3397 
L 2834 2853 
Q 2591 2978 2328 3040 
Q 2066 3103 1784 3103 
Q 1356 3103 1142 2972 
Q 928 2841 928 2578 
Q 928 2378 1081 2264 
Q 1234 2150 1697 2047 
L 1894 2003 
Q 2506 1872 2764 1633 
Q 3022 1394 3022 966 
Q 3022 478 2636 193 
Q 2250 -91 1575 -91 
Q 1294 -91 989 -36 
Q 684 19 347 128 
L 347 722 
Q 666 556 975 473 
Q 1284 391 1588 391 
Q 1994 391 2212 530 
Q 2431 669 2431 922 
Q 2431 1156 2273 1281 
Q 2116 1406 1581 1522 
L 1381 1569 
Q 847 1681 609 1914 
Q 372 2147 372 2553 
Q 372 3047 722 3315 
Q 1072 3584 1716 3584 
Q 2034 3584 2315 3537 
Q 2597 3491 2834 3397 
z
" transform="scale(0.015625)"/>
      </defs>
      <use xlink:href="#DejaVuSans-45"/>
      <use xlink:href="#DejaVuSans-70" x="63.183594"/>
      <use xlink:href="#DejaVuSans-6f" x="126.660156"/>
      <use xlink:href="#DejaVuSans-63" x="187.841797"/>
      <use xlink:href="#DejaVuSans-68" x="242.822266"/>
      <use xlink:href="#DejaVuSans-73" x="306.201172"/>
     </g>
    </g>
   </g>
   <g id="matplotlib.axis_2">
    <g id="ytick_1">
     <g id="line2d_7">
      <defs>
       <path id="m516d23c7b5" d="M 0 0 
L -3.5 0 
" style="stroke: #000000; stroke-width: 0.8"/>
      </defs>
      <g>
       <use xlink:href="#m516d23c7b5" x="57.6" y="295.525486" style="stroke: #000000; stroke-width: 0.8"/>
      </g>
     </g>
     <g id="text_8">
      <!-- 0.0 -->
      <g transform="translate(34.696875 299.324705)scale(0.1 -0.1)">
       <defs>
        <path id="DejaVuSans-2e" d="M 684 794 
L 1344 794 
L 1344 0 
L 684 0 
L 684 794 
z
" transform="scale(0.015625)"/>
       </defs>
       <use xlink:href="#DejaVuSans-30"/>
       <use xlink:href="#DejaVuSans-2e" x="63.623047"/>
       <use xlink:href="#DejaVuSans-30" x="95.410156"/>
      </g>
     </g>
    </g>
    <g id="ytick_2">
     <g id="line2d_8">
      <g>
       <use xlink:href="#m516d23c7b5" x="57.6" y="260.655452" style="stroke: #000000; stroke-width: 0.8"/>
      </g>
     </g>
     <g id="text_9">
      <!-- 0.5 -->
      <g transform="translate(34.696875 264.454671)scale(0.1 -0.1)">
       <defs>
        <path id="DejaVuSans-35" d="M 691 4666 
L 3169 4666 
L 3169 4134 
L 1269 4134 
L 1269 2991 
Q 1406 3038 1543 3061 
Q 1681 3084 1819 3084 
Q 2600 3084 3056 2656 
Q 3513 2228 3513 1497 
Q 3513 744 3044 326 
Q 2575 -91 1722 -91 
Q 1428 -91 1123 -41 
Q 819 9 494 109 
L 494 744 
Q 775 591 1075 516 
Q 1375 441 1709 441 
Q 2250 441 2565 725 
Q 2881 1009 2881 1497 
Q 2881 1984 2565 2268 
Q 2250 2553 1709 2553 
Q 1456 2553 1204 2497 
Q 953 2441 691 2322 
L 691 4666 
z
" transform="scale(0.015625)"/>
       </defs>
       <use xlink:href="#DejaVuSans-30"/>
       <use xlink:href="#DejaVuSans-2e" x="63.623047"/>
       <use xlink:href="#DejaVuSans-35" x="95.410156"/>
      </g>
     </g>
    </g>
    <g id="ytick_3">
     <g id="line2d_9">
      <g>
       <use xlink:href="#m516d23c7b5" x="57.6" y="225.785418" style="stroke: #000000; stroke-width: 0.8"/>
      </g>
     </g>
     <g id="text_10">
      <!-- 1.0 -->
      <g transform="translate(34.696875 229.584637)scale(0.1 -0.1)">
       <use xlink:href="#DejaVuSans-31"/>
       <use xlink:href="#DejaVuSans-2e" x="63.623047"/>
       <use xlink:href="#DejaVuSans-30" x="95.410156"/>
      </g>
     </g>
    </g>
    <g id="ytick_4">
     <g id="line2d_10">
      <g>
       <use xlink:href="#m516d23c7b5" x="57.6" y="190.915384" style="stroke: #000000; stroke-width: 0.8"/>
      </g>
     </g>
     <g id="text_11">
      <!-- 1.5 -->
      <g transform="translate(34.696875 194.714602)scale(0.1 -0.1)">
       <use xlink:href="#DejaVuSans-31"/>
       <use xlink:href="#DejaVuSans-2e" x="63.623047"/>
       <use xlink:href="#DejaVuSans-35" x="95.410156"/>
      </g>
     </g>
    </g>
    <g id="ytick_5">
     <g id="line2d_11">
      <g>
       <use xlink:href="#m516d23c7b5" x="57.6" y="156.045349" style="stroke: #000000; stroke-width: 0.8"/>
      </g>
     </g>
     <g id="text_12">
      <!-- 2.0 -->
      <g transform="translate(34.696875 159.844568)scale(0.1 -0.1)">
       <use xlink:href="#DejaVuSans-32"/>
       <use xlink:href="#DejaVuSans-2e" x="63.623047"/>
       <use xlink:href="#DejaVuSans-30" x="95.410156"/>
      </g>
     </g>
    </g>
    <g id="ytick_6">
     <g id="line2d_12">
      <g>
       <use xlink:href="#m516d23c7b5" x="57.6" y="121.175315" style="stroke: #000000; stroke-width: 0.8"/>
      </g>
     </g>
     <g id="text_13">
      <!-- 2.5 -->
      <g transform="translate(34.696875 124.974534)scale(0.1 -0.1)">
       <use xlink:href="#DejaVuSans-32"/>
       <use xlink:href="#DejaVuSans-2e" x="63.623047"/>
       <use xlink:href="#DejaVuSans-35" x="95.410156"/>
      </g>
     </g>
    </g>
    <g id="ytick_7">
     <g id="line2d_13">
      <g>
       <use xlink:href="#m516d23c7b5" x="57.6" y="86.305281" style="stroke: #000000; stroke-width: 0.8"/>
      </g>
     </g>
     <g id="text_14">
      <!-- 3.0 -->
      <g transform="translate(34.696875 90.1045)scale(0.1 -0.1)">
       <defs>
        <path id="DejaVuSans-33" d="M 2597 2516 
Q 3050 2419 3304 2112 
Q 3559 1806 3559 1356 
Q 3559 666 3084 287 
Q 2609 -91 1734 -91 
Q 1441 -91 1130 -33 
Q 819 25 488 141 
L 488 750 
Q 750 597 1062 519 
Q 1375 441 1716 441 
Q 2309 441 2620 675 
Q 2931 909 2931 1356 
Q 2931 1769 2642 2001 
Q 2353 2234 1838 2234 
L 1294 2234 
L 1294 2753 
L 1863 2753 
Q 2328 2753 2575 2939 
Q 2822 3125 2822 3475 
Q 2822 3834 2567 4026 
Q 2313 4219 1838 4219 
Q 1578 4219 1281 4162 
Q 984 4106 628 3988 
L 628 4550 
Q 988 4650 1302 4700 
Q 1616 4750 1894 4750 
Q 2613 4750 3031 4423 
Q 3450 4097 3450 3541 
Q 3450 3153 3228 2886 
Q 3006 2619 2597 2516 
z
" transform="scale(0.015625)"/>
       </defs>
       <use xlink:href="#DejaVuSans-33"/>
       <use xlink:href="#DejaVuSans-2e" x="63.623047"/>
       <use xlink:href="#DejaVuSans-30" x="95.410156"/>
      </g>
     </g>
    </g>
    <g id="ytick_8">
     <g id="line2d_14">
      <g>
       <use xlink:href="#m516d23c7b5" x="57.6" y="51.435247" style="stroke: #000000; stroke-width: 0.8"/>
      </g>
     </g>
     <g id="text_15">
      <!-- 3.5 -->
      <g transform="translate(34.696875 55.234465)scale(0.1 -0.1)">
       <use xlink:href="#DejaVuSans-33"/>
       <use xlink:href="#DejaVuSans-2e" x="63.623047"/>
       <use xlink:href="#DejaVuSans-35" x="95.410156"/>
      </g>
     </g>
    </g>
    <g id="text_16">
     <!-- error -->
     <g transform="translate(28.617188 186.630344)rotate(-90)scale(0.1 -0.1)">
      <defs>
       <path id="DejaVuSans-65" d="M 3597 1894 
L 3597 1613 
L 953 1613 
Q 991 1019 1311 708 
Q 1631 397 2203 397 
Q 2534 397 2845 478 
Q 3156 559 3463 722 
L 3463 178 
Q 3153 47 2828 -22 
Q 2503 -91 2169 -91 
Q 1331 -91 842 396 
Q 353 884 353 1716 
Q 353 2575 817 3079 
Q 1281 3584 2069 3584 
Q 2775 3584 3186 3129 
Q 3597 2675 3597 1894 
z
M 3022 2063 
Q 3016 2534 2758 2815 
Q 2500 3097 2075 3097 
Q 1594 3097 1305 2825 
Q 1016 2553 972 2059 
L 3022 2063 
z
" transform="scale(0.015625)"/>
       <path id="DejaVuSans-72" d="M 2631 2963 
Q 2534 3019 2420 3045 
Q 2306 3072 2169 3072 
Q 1681 3072 1420 2755 
Q 1159 2438 1159 1844 
L 1159 0 
L 581 0 
L 581 3500 
L 1159 3500 
L 1159 2956 
Q 1341 3275 1631 3429 
Q 1922 3584 2338 3584 
Q 2397 3584 2469 3576 
Q 2541 3569 2628 3553 
L 2631 2963 
z
" transform="scale(0.015625)"/>
      </defs>
      <use xlink:href="#DejaVuSans-65"/>
      <use xlink:href="#DejaVuSans-72" x="61.523438"/>
      <use xlink:href="#DejaVuSans-72" x="100.886719"/>
      <use xlink:href="#DejaVuSans-6f" x="139.75"/>
      <use xlink:href="#DejaVuSans-72" x="200.931641"/>
     </g>
    </g>
   </g>
   <g id="line2d_15">
    <path d="M 73.832727 53.568 
L 85.207011 77.712835 
L 92.031581 91.634176 
L 99.18113 105.726719 
L 106.0057 118.56968 
L 111.855332 129.037248 
L 116.730025 137.309643 
L 121.929697 145.645451 
L 126.154431 151.981706 
L 132.004062 160.173204 
L 136.553776 166.05624 
L 139.803571 169.886204 
L 143.378346 173.695682 
L 146.95312 177.1611 
L 150.527895 180.296108 
L 154.752629 183.679404 
L 162.552138 189.581581 
L 165.801933 191.628173 
L 170.676626 194.305871 
L 175.226339 196.585253 
L 178.801114 198.41465 
L 181.72593 199.928876 
L 193.750172 205.600025 
L 198.949844 208.062939 
L 202.524619 209.756707 
L 210.974087 213.829829 
L 222.023391 219.446574 
L 225.923145 221.1719 
L 231.772776 223.577775 
L 248.996691 232.204365 
L 253.546405 234.692179 
L 258.421097 236.942571 
L 264.595708 239.750146 
L 267.845504 241.398138 
L 272.395217 243.943699 
L 274.345094 244.982142 
L 279.869746 247.70283 
L 282.144603 248.904429 
L 284.744439 250.263572 
L 288.969173 252.367095 
L 293.843866 254.738152 
L 298.718559 256.946361 
L 304.89317 259.639539 
L 308.142965 261.149134 
L 311.39276 262.580864 
L 320.817166 266.3732 
L 327.316757 268.674239 
L 330.241572 269.853291 
L 334.466306 271.709283 
L 338.041081 273.091139 
L 353.965078 278.870915 
L 372.81389 284.322774 
L 388.412907 287.750914 
L 395.237477 289.09096 
L 398.487273 289.67625 
L 398.487273 289.67625 
" clip-path="url(#paee9bd5213)" style="fill: none; stroke: #1f77b4; stroke-width: 1.5; stroke-linecap: square"/>
   </g>
   <g id="line2d_16">
    <path d="M 73.832727 87.295523 
L 74.482686 98.937011 
L 75.132645 118.042265 
L 75.782604 145.831573 
L 76.432563 185.159402 
L 77.082523 239.208294 
L 77.407502 272.734907 
L 77.732482 275.423703 
L 79.0324 132.029402 
L 79.357379 120.755059 
L 79.682359 123.041034 
L 80.007338 135.198321 
L 80.657297 174.921656 
L 81.632236 237.12134 
L 82.282195 265.19068 
L 82.607174 273.972038 
L 82.932154 279.478726 
L 83.257133 281.903265 
L 83.582113 281.617308 
L 83.907093 278.975109 
L 84.232072 274.226361 
L 84.882031 259.803226 
L 86.506929 216.48991 
L 86.831908 211.069384 
L 87.156888 207.799969 
L 87.481867 206.650855 
L 87.806847 207.669079 
L 88.131826 210.804378 
L 88.781785 221.880423 
L 89.756724 241.32107 
L 90.081704 245.45272 
L 90.406683 248.041994 
L 90.731663 249.266272 
L 91.056642 249.110109 
L 91.381622 247.792168 
L 92.031581 242.804768 
L 92.68154 236.184631 
L 93.006519 234.192976 
L 93.331499 233.134248 
L 93.656478 233.345124 
L 94.306437 236.023911 
L 94.956396 238.55671 
L 95.931335 241.436081 
L 96.581294 242.567105 
L 96.906274 242.600352 
L 97.231253 242.286029 
L 97.881212 241.209226 
L 98.206192 240.921258 
L 98.531171 240.945367 
L 98.856151 241.389167 
L 101.131007 246.293348 
L 102.105946 249.07653 
L 102.755905 250.552197 
L 103.405864 252.351905 
L 104.380803 254.4357 
L 107.305618 262.190063 
L 107.955577 264.512044 
L 108.605536 265.931178 
L 109.255495 267.389594 
L 110.230434 270.337869 
L 110.880393 271.598728 
L 112.180311 274.557702 
L 112.83027 275.450415 
L 113.805209 277.377514 
L 114.130188 277.651607 
L 114.455168 278.124256 
L 115.105127 279.740681 
L 115.755086 279.447334 
L 116.080066 279.620108 
L 116.730025 281.057474 
L 117.055004 281.783623 
L 117.379984 282.159741 
L 117.704963 282.227622 
L 118.354922 282.223798 
L 118.679902 282.371324 
L 119.004881 282.702374 
L 119.97982 284.508925 
L 120.304799 284.514703 
L 120.954758 283.884162 
L 121.279738 284.228572 
L 121.929697 285.253921 
L 122.254676 285.415322 
L 122.904636 285.054875 
L 123.229615 285.268786 
L 123.879574 286.176006 
L 124.204554 286.374536 
L 124.854513 286.094258 
L 125.179492 286.205619 
L 125.829451 287.092978 
L 126.154431 287.25073 
L 126.80439 287.250073 
L 127.454349 286.952685 
L 127.779328 287.109389 
L 128.754267 288.20188 
L 129.079247 288.297545 
L 130.379165 288.157485 
L 130.704144 288.284393 
L 131.679083 289.083776 
L 132.004062 288.979082 
L 132.654021 288.387133 
L 132.979001 288.331905 
L 133.30398 288.76109 
L 133.62896 289.42822 
L 133.953939 289.825588 
L 134.278919 289.833644 
L 134.603898 289.54447 
L 135.253857 288.468981 
L 135.578837 288.477968 
L 135.903817 288.944232 
L 136.553776 290.265215 
L 136.878755 290.433758 
L 137.203735 290.218808 
L 137.853694 289.038126 
L 138.178673 288.887665 
L 138.503653 289.098542 
L 139.478591 290.569046 
L 139.803571 290.492053 
L 140.45353 289.229332 
L 140.778509 289.098084 
L 141.103489 289.481885 
L 141.753448 290.554638 
L 142.078428 290.659615 
L 143.378346 290.172451 
L 143.703325 290.142222 
L 144.353284 290.439344 
L 145.978182 290.163015 
L 146.303161 290.421412 
L 146.95312 291.18947 
L 147.2781 291.430316 
L 147.603079 291.417888 
L 148.578018 290.468484 
L 148.902998 290.542351 
L 149.552957 290.916241 
L 150.202916 291.280172 
L 150.852875 291.919833 
L 151.177854 291.79576 
L 151.827813 291.088118 
L 152.477772 290.93577 
L 153.127731 291.069661 
L 153.452711 291.053591 
L 153.77769 291.248871 
L 154.427649 291.888374 
L 155.077609 292.16586 
L 155.402588 291.950727 
L 155.727568 291.458907 
L 156.052547 291.183841 
L 156.377527 291.405908 
L 157.027486 292.105993 
L 157.352465 292.001947 
L 157.677445 291.546633 
L 158.002424 291.359492 
L 158.652383 291.461967 
L 159.627322 292.078375 
L 159.952301 292.276165 
L 160.277281 292.077277 
L 160.92724 291.179601 
L 161.252219 291.256719 
L 161.902179 292.406216 
L 162.227158 292.654129 
L 162.552138 292.741514 
L 162.877117 292.626137 
L 163.527076 292.235196 
L 165.151974 292.41369 
L 165.476953 292.626644 
L 165.801933 292.675196 
L 166.776871 292.103349 
L 167.101851 292.288287 
L 167.75181 293.108446 
L 168.07679 292.968145 
L 168.401769 292.601961 
L 168.726749 292.449089 
L 170.026667 292.681273 
L 170.351646 292.818865 
L 170.676626 292.649058 
L 171.001605 292.314367 
L 171.326585 292.152242 
L 171.651564 292.28314 
L 172.951482 293.384302 
L 173.276462 293.419211 
L 173.601441 293.001524 
L 173.926421 292.397354 
L 174.2514 292.072705 
L 174.57638 292.308722 
L 175.226339 293.367084 
L 175.551319 293.576214 
L 175.876298 293.464437 
L 176.201278 293.189188 
L 177.176216 291.836971 
L 177.501196 291.915726 
L 178.151155 292.987416 
L 178.801114 293.393987 
L 179.126093 293.528552 
L 179.451073 293.209283 
L 180.101032 292.37573 
L 180.426011 292.383145 
L 181.40095 293.101629 
L 181.72593 292.96718 
L 182.375889 292.579606 
L 182.700868 292.651926 
L 183.025848 292.883296 
L 183.350827 293.281221 
L 183.675807 293.338909 
L 184.325766 292.634966 
L 184.650745 292.710446 
L 185.300704 293.203214 
L 185.950663 293.088261 
L 186.275643 293.244167 
L 186.925602 293.203845 
L 187.900541 293.065198 
L 189.200459 292.896764 
L 189.525438 293.117466 
L 190.175397 293.890205 
L 190.500377 293.949922 
L 190.825356 293.603101 
L 191.475315 292.555754 
L 191.800295 292.231804 
L 192.125274 292.352942 
L 192.450254 293.032293 
L 192.775233 294.014128 
L 193.100213 294.533865 
L 193.425192 294.024437 
L 193.750172 293.13515 
L 194.075152 292.590048 
L 194.400131 292.678305 
L 194.725111 293.066953 
L 195.37507 294.164972 
L 195.700049 294.098595 
L 196.025029 293.497617 
L 196.350008 292.634285 
L 196.674988 292.097671 
L 196.999967 292.380751 
L 197.649926 294.562822 
L 197.974906 294.779202 
L 198.949844 292.202057 
L 199.274824 292.362012 
L 199.924783 293.650214 
L 200.249762 293.810535 
L 200.574742 293.677184 
L 201.224701 293.702166 
L 201.87466 292.729177 
L 202.19964 292.566329 
L 202.524619 292.628781 
L 202.849599 292.904653 
L 203.174578 293.527713 
L 203.499558 293.84783 
L 204.149517 292.765823 
L 204.474496 292.64195 
L 205.124455 293.001574 
L 205.774414 293.806004 
L 206.099394 293.88895 
L 206.424373 293.600707 
L 207.074333 292.668304 
L 207.399312 292.750086 
L 208.374251 294.432929 
L 208.69923 294.344879 
L 209.349189 292.835858 
L 209.674169 292.831501 
L 210.649107 294.372497 
L 210.974087 294.053693 
L 211.299066 293.528802 
L 211.624046 293.230424 
L 211.949025 293.361506 
L 212.598984 294.572233 
L 212.923964 294.507436 
L 213.248943 293.976742 
L 213.898903 292.593805 
L 214.223882 292.843939 
L 214.873841 294.474256 
L 215.198821 294.499813 
L 216.173759 293.120676 
L 216.498739 293.554391 
L 217.148698 294.831877 
L 217.473677 294.811417 
L 217.798657 294.51161 
L 218.773595 293.044248 
L 219.098575 293.176901 
L 219.748534 294.208851 
L 220.073514 294.238764 
L 220.723473 293.672936 
L 221.373432 292.659932 
L 221.698411 292.593789 
L 222.023391 293.205899 
L 222.67335 295.12352 
L 222.998329 295.479013 
L 223.323309 294.727166 
L 223.973268 292.236958 
L 224.298247 292.278959 
L 225.273186 295.353909 
L 225.598165 294.932921 
L 226.248124 292.582715 
L 226.573104 292.137685 
L 226.898084 292.228794 
L 227.223063 293.045271 
L 227.873022 295.181517 
L 228.198002 295.456691 
L 228.522981 294.973159 
L 229.17294 292.845036 
L 229.49792 292.249437 
L 229.822899 292.404428 
L 230.147879 293.252896 
L 230.472858 294.501933 
L 230.797838 295.296894 
L 231.122817 295.069656 
L 231.772776 293.111023 
L 232.097756 292.623094 
L 232.422735 293.038595 
L 232.747715 294.03897 
L 233.072695 294.633596 
L 233.397674 294.506871 
L 234.047633 293.558764 
L 234.372613 293.122155 
L 234.697592 293.346882 
L 235.347551 294.764038 
L 235.672531 294.959932 
L 235.99751 294.361897 
L 236.32249 293.248714 
L 236.647469 292.644668 
L 236.972449 292.842151 
L 237.947387 294.6741 
L 238.272367 294.703381 
L 238.597346 294.451726 
L 239.247305 293.30617 
L 239.572285 293.285087 
L 240.547224 294.466475 
L 240.872203 294.199881 
L 241.522162 293.423509 
L 241.847142 293.410939 
L 242.172121 293.644761 
L 243.472039 295.083931 
L 243.797019 294.712908 
L 244.446978 292.932039 
L 244.771957 292.801639 
L 245.096937 293.548838 
L 245.421916 294.762042 
L 245.746896 295.401854 
L 246.071876 294.99889 
L 246.721835 292.911396 
L 247.046814 292.567052 
L 248.021753 294.574195 
L 248.346732 294.785138 
L 248.671712 294.71014 
L 249.64665 293.472551 
L 249.97163 293.876787 
L 250.296609 294.92095 
L 250.621589 295.167234 
L 251.271548 295.02443 
L 252.246486 292.208642 
L 252.571466 292.711577 
L 253.221425 294.935374 
L 253.546405 295.342653 
L 253.871384 295.010696 
L 254.846323 293.235437 
L 255.171302 293.454669 
L 255.821261 295.120744 
L 256.146241 295.360601 
L 256.47122 294.964763 
L 257.121179 293.574884 
L 257.446159 293.652767 
L 258.096118 295.181309 
L 258.421097 294.961578 
L 259.071057 294.047292 
L 259.396036 293.816313 
L 259.721016 293.743677 
L 260.045995 293.795504 
L 260.695954 294.129223 
L 261.020934 294.236045 
L 261.345913 294.485671 
L 261.670893 294.525718 
L 262.645831 293.752082 
L 263.62077 295.174475 
L 264.270729 295.155885 
L 264.595708 294.792163 
L 265.245667 293.302828 
L 265.570647 293.260553 
L 265.895627 293.860567 
L 266.220606 294.772908 
L 266.545586 295.305964 
L 266.870565 295.307884 
L 267.195545 294.732504 
L 267.520524 293.789235 
L 267.845504 293.270928 
L 268.170483 293.497817 
L 268.820442 294.63146 
L 269.145422 294.723134 
L 269.470401 294.661264 
L 269.795381 294.407373 
L 270.44534 293.737076 
L 270.770319 293.804059 
L 271.745258 295.278047 
L 272.070238 295.246455 
L 273.045176 293.279425 
L 273.370156 293.835584 
L 273.695135 294.689713 
L 274.020115 294.930951 
L 274.995053 294.156309 
L 275.320033 294.472378 
L 275.645012 295.025735 
L 276.294971 295.248118 
L 276.619951 295.016482 
L 276.94493 294.16552 
L 277.26991 293.726567 
L 277.594889 293.76461 
L 277.919869 294.001641 
L 278.244848 294.80692 
L 278.569828 294.641428 
L 278.894808 293.947362 
L 279.219787 294.755591 
L 279.544767 294.756556 
L 279.869746 293.640728 
L 280.194726 293.312222 
L 281.169664 295.115224 
L 281.494644 295.051915 
L 281.819623 294.32077 
L 282.144603 293.05469 
L 282.469582 292.657704 
L 282.794562 293.5332 
L 283.119541 294.786119 
L 283.444521 294.896275 
L 283.7695 294.61253 
L 284.09448 295.112198 
L 284.419459 294.779044 
L 284.744439 293.98089 
L 285.069419 293.962268 
L 285.719378 295.246837 
L 286.044357 295.415015 
L 286.369337 295.379557 
L 286.694316 294.884228 
L 287.019296 293.924274 
L 287.344275 293.320869 
L 287.669255 293.481746 
L 288.319214 295.074071 
L 288.644193 295.148445 
L 288.969173 295.351423 
L 289.294152 295.097183 
L 289.619132 294.348338 
L 289.944111 293.989769 
L 290.59407 295.084471 
L 290.91905 295.153858 
L 291.244029 294.946207 
L 291.893989 293.653789 
L 292.218968 294.224023 
L 292.543948 295.132566 
L 292.868927 295.420302 
L 293.518886 295.421307 
L 294.168845 295.473909 
L 294.493825 295.24692 
L 295.143784 294.102129 
L 295.468763 294.160989 
L 296.118722 295.363944 
L 296.443702 295.288373 
L 296.768681 294.966925 
L 297.093661 295.082775 
L 297.41864 294.526524 
L 297.74362 293.452133 
L 298.0686 293.289775 
L 298.718559 294.756439 
L 299.368518 293.765858 
L 299.693497 294.687095 
L 300.018477 294.814285 
L 300.343456 294.142117 
L 300.668436 294.520613 
L 300.993415 295.148827 
L 301.318395 295.170227 
L 301.643374 295.050826 
L 301.968354 295.331554 
L 302.293333 295.193073 
L 302.943292 294.4944 
L 303.268272 294.146923 
L 303.593251 294.410291 
L 303.918231 295.182864 
L 304.24321 295.326873 
L 304.56819 294.943555 
L 304.89317 294.974573 
L 305.218149 295.303478 
L 305.543129 295.098621 
L 305.868108 294.549429 
L 306.193088 294.32427 
L 307.168026 295.450605 
L 307.493006 295.449932 
L 307.817985 295.305232 
L 308.467944 294.793177 
L 308.792924 295.048149 
L 309.117903 295.070039 
L 309.442883 294.771047 
L 310.092842 295.110111 
L 310.417821 294.770605 
L 310.742801 294.661597 
L 311.067781 295.026001 
L 311.39276 295.148536 
L 311.71774 294.632092 
L 312.042719 293.866761 
L 312.367699 293.500752 
L 312.692678 294.203647 
L 313.017658 294.58413 
L 313.342637 293.871507 
L 313.667617 293.467472 
L 314.317576 294.805506 
L 314.967535 293.524878 
L 315.292514 293.859071 
L 315.617494 294.553885 
L 316.267453 293.464022 
L 316.592432 294.560203 
L 316.917412 294.707347 
L 317.242391 293.611166 
L 317.567371 293.662519 
L 317.892351 294.77241 
L 318.21733 294.993919 
L 318.54231 294.236112 
L 318.867289 293.834063 
L 319.192269 294.434567 
L 319.517248 294.78434 
L 320.167207 293.185182 
L 320.492187 293.827113 
L 320.817166 294.945575 
L 321.142146 295.006473 
L 321.467125 294.51521 
L 321.792105 294.461246 
L 322.117084 294.988182 
L 322.442064 294.701852 
L 322.767043 293.436321 
L 323.092023 293.371159 
L 323.417002 294.483893 
L 323.741982 294.96724 
L 324.066962 294.65808 
L 324.391941 294.762233 
L 324.716921 295.158488 
L 325.0419 295.233469 
L 325.691859 294.730634 
L 326.016839 294.637903 
L 326.341818 294.720815 
L 327.316757 295.324154 
L 327.641736 295.138078 
L 328.616675 295.172522 
L 328.941654 294.951312 
L 329.916593 294.801491 
L 330.566552 295.373089 
L 330.891532 295.285521 
L 331.216511 294.854948 
L 331.541491 294.639583 
L 331.86647 295.017871 
L 332.19145 295.220217 
L 332.841409 295.153226 
L 333.491368 294.029767 
L 333.816347 294.283949 
L 334.141327 294.965095 
L 334.791286 294.73632 
L 335.116265 294.800327 
L 335.766224 293.232478 
L 336.091204 293.554225 
L 336.416183 294.735522 
L 336.741163 294.851273 
L 337.066143 294.316247 
L 337.391122 294.865897 
L 337.716102 294.56816 
L 338.041081 293.528869 
L 338.366061 293.466949 
L 338.69104 293.902227 
L 339.340999 295.215121 
L 339.665979 295.197836 
L 339.990958 294.976418 
L 340.640917 295.275303 
L 340.965897 294.777207 
L 341.290876 294.621625 
L 341.940835 294.95428 
L 342.265815 295.340981 
L 342.590794 295.278429 
L 342.915774 294.769891 
L 343.240753 294.617202 
L 343.565733 294.973617 
L 343.890713 295.144196 
L 344.215692 294.899733 
L 344.540672 295.077247 
L 344.865651 295.118873 
L 345.190631 294.518236 
L 345.51561 294.173386 
L 346.165569 294.304891 
L 346.490549 294.560952 
L 346.815528 295.190488 
L 347.140508 295.488 
L 347.465487 295.068401 
L 348.115446 293.224456 
L 348.440426 293.438441 
L 348.765405 294.585835 
L 349.090385 294.875291 
L 349.415364 294.558424 
L 349.740344 294.58157 
L 350.390303 292.150995 
L 350.715283 292.278643 
L 351.040262 293.834712 
L 351.365242 294.55026 
L 351.690221 294.039078 
L 352.34018 294.928582 
L 352.990139 293.924915 
L 353.315119 293.77926 
L 353.640098 294.006954 
L 354.290057 295.197138 
L 354.940016 295.070297 
L 355.264996 294.621717 
L 355.589975 293.735405 
L 355.914955 293.696697 
L 356.239934 294.696473 
L 356.564914 295.299205 
L 356.889894 295.337132 
L 357.214873 294.871143 
L 357.539853 293.886406 
L 357.864832 294.011053 
L 358.189812 294.936314 
L 358.514791 295.291332 
L 358.839771 295.070953 
L 359.814709 293.282044 
L 360.139689 293.48834 
L 360.464668 294.589684 
L 360.789648 294.805432 
L 361.114627 293.893929 
L 361.764586 294.473783 
L 362.089566 293.070462 
L 362.414545 292.160007 
L 363.064505 294.553054 
L 363.389484 294.492197 
L 363.714464 294.956441 
L 364.039443 294.981341 
L 364.364423 294.037307 
L 364.689402 293.57338 
L 365.014382 293.553486 
L 365.339361 294.063803 
L 365.664341 294.92647 
L 365.98932 295.045688 
L 366.3143 294.823405 
L 366.639279 295.075708 
L 366.964259 294.668173 
L 367.289238 293.554383 
L 367.614218 293.214488 
L 368.264177 294.929862 
L 368.589156 295.126081 
L 368.914136 295.154522 
L 369.239115 295.352072 
L 369.564095 294.933878 
L 369.889075 293.949208 
L 370.214054 293.540649 
L 370.539034 294.13328 
L 370.864013 294.974914 
L 371.513972 294.972021 
L 371.838952 294.658297 
L 372.163931 293.683428 
L 372.488911 293.255241 
L 372.81389 293.719401 
L 373.13887 294.805049 
L 373.463849 294.994368 
L 373.788829 294.605945 
L 374.113808 294.987459 
L 374.438788 294.700015 
L 374.763767 293.864017 
L 375.088747 294.269649 
L 375.413726 294.894945 
L 375.738706 295.135234 
L 376.063686 294.679912 
L 376.388665 293.585759 
L 376.713645 293.176303 
L 377.363604 294.804559 
L 378.013563 294.662952 
L 378.338542 294.869297 
L 378.663522 294.585028 
L 378.988501 294.102179 
L 379.313481 294.185956 
L 379.63846 294.528778 
L 379.96344 294.35671 
L 380.288419 293.886007 
L 380.613399 294.24041 
L 380.938378 294.960523 
L 381.263358 295.254377 
L 381.588337 294.777065 
L 381.913317 293.59749 
L 382.238296 292.975777 
L 382.563276 293.507145 
L 382.888256 294.498965 
L 383.213235 294.911863 
L 383.863194 294.54134 
L 384.188174 294.802115 
L 384.513153 295.24367 
L 385.163112 295.136906 
L 385.488092 294.60548 
L 385.813071 293.623645 
L 386.138051 293.079324 
L 386.46303 293.470548 
L 386.78801 294.387205 
L 387.112989 294.441227 
L 387.437969 294.162586 
L 388.087928 294.097756 
L 388.412907 294.012267 
L 388.737887 294.189256 
L 389.062867 294.56471 
L 389.387846 294.669844 
L 389.712826 294.629174 
L 390.037805 294.25195 
L 390.362785 293.581602 
L 390.687764 293.70605 
L 391.337723 295.049479 
L 391.662703 295.241974 
L 392.637641 293.60089 
L 392.962621 293.543426 
L 393.2876 293.768069 
L 393.937559 293.643057 
L 394.587518 294.461105 
L 395.237477 294.454944 
L 395.562457 294.500786 
L 395.887437 294.331196 
L 396.212416 293.767039 
L 396.537396 293.622988 
L 397.187355 295.165954 
L 397.512334 295.28764 
L 397.837314 294.821261 
L 398.162293 293.29375 
L 398.487273 292.40674 
L 398.487273 292.40674 
" clip-path="url(#paee9bd5213)" style="fill: none; stroke: #ff7f0e; stroke-width: 1.5; stroke-linecap: square"/>
   </g>
   <g id="line2d_17">
    <path d="M 73.832727 78.101971 
L 74.482686 91.631268 
L 75.457625 118.497713 
L 76.107584 140.443957 
L 77.082523 183.344091 
L 78.382441 256.27866 
L 78.70742 275.208291 
L 79.0324 287.072427 
L 79.357379 282.124921 
L 80.007338 256.576217 
L 80.332318 248.540894 
L 80.657297 247.239532 
L 80.982277 252.974929 
L 81.957215 289.25319 
L 82.282195 290.426849 
L 83.257133 265.853291 
L 83.907093 254.696046 
L 84.557052 247.964746 
L 84.882031 246.061649 
L 85.207011 244.822157 
L 85.53199 244.202872 
L 85.85697 244.247084 
L 86.181949 244.76722 
L 86.506929 245.682579 
L 87.156888 248.659104 
L 87.806847 253.273511 
L 88.456806 259.455086 
L 89.106765 267.486535 
L 90.731663 291.633913 
L 91.056642 292.140223 
L 92.35656 282.833118 
L 93.331499 277.430974 
L 93.656478 274.394807 
L 94.631417 262.952038 
L 95.281376 257.536983 
L 95.931335 253.692961 
L 96.581294 250.741735 
L 97.231253 248.532137 
L 97.881212 246.953356 
L 98.531171 246.104564 
L 99.18113 245.707653 
L 99.50611 245.683868 
L 99.831089 245.081651 
L 100.481048 243.37444 
L 101.131007 242.377565 
L 101.780966 241.613722 
L 102.430925 240.751961 
L 102.755905 238.647656 
L 103.405864 231.820276 
L 104.055823 226.571116 
L 105.030762 220.743 
L 106.0057 216.623576 
L 106.980639 213.678456 
L 107.955577 211.576425 
L 108.930516 210.072284 
L 109.905455 209.03323 
L 110.880393 208.315968 
L 112.505291 207.461041 
L 113.805209 207.089458 
L 114.130188 207.035701 
L 114.455168 206.779079 
L 115.430106 205.584057 
L 116.405045 204.706142 
L 117.379984 204.065741 
L 117.704963 203.895759 
L 118.029943 203.247863 
L 119.004881 200.339648 
L 119.97982 198.228725 
L 120.954758 196.704436 
L 121.929697 195.682766 
L 122.254676 195.419829 
L 122.579656 194.961609 
L 122.904636 195.182387 
L 123.879574 198.200958 
L 124.529533 199.881981 
L 125.179492 200.794455 
L 125.829451 201.356409 
L 126.154431 201.483807 
L 126.47941 200.927258 
L 127.454349 197.86625 
L 128.429287 195.666583 
L 129.404226 194.095936 
L 130.379165 192.955202 
L 131.354103 192.163292 
L 132.654021 191.434267 
L 135.578837 190.304411 
L 137.528714 189.938572 
L 139.153612 189.796712 
L 141.753448 190.048122 
L 145.978182 190.662946 
L 150.527895 190.863334 
L 153.452711 190.852789 
L 153.77769 191.078783 
L 154.752629 192.262005 
L 156.052547 193.394222 
L 157.027486 194.058924 
L 158.002424 194.508822 
L 159.627322 194.942093 
L 162.877117 195.479692 
L 165.151974 195.639431 
L 167.75181 195.603162 
L 168.07679 196.028327 
L 168.726749 198.296033 
L 169.376708 201.775958 
L 170.026667 206.946242 
L 170.351646 210.319029 
L 170.676626 211.311718 
L 171.326585 208.486336 
L 171.976544 206.68277 
L 172.951482 205.028883 
L 173.601441 204.24983 
L 173.926421 204.052206 
L 174.57638 204.031688 
L 174.90136 204.068546 
L 175.226339 203.893627 
L 175.876298 203.190083 
L 176.201278 203.015263 
L 177.826175 202.932231 
L 183.350827 203.05033 
L 185.300704 203.128317 
L 186.925602 203.428594 
L 187.900541 203.915355 
L 189.200459 204.267517 
L 190.825356 204.393956 
L 191.475315 204.204562 
L 192.125274 204.029688 
L 193.425192 204.100866 
L 194.725111 204.317067 
L 195.05009 204.15362 
L 195.37507 204.223255 
L 196.025029 204.730871 
L 196.999967 205.142963 
L 197.649926 205.028151 
L 198.299885 204.883514 
L 198.949844 205.125321 
L 199.274824 205.37893 
L 199.599803 205.856479 
L 200.574742 207.884635 
L 201.549681 209.099203 
L 202.849599 210.359612 
L 203.499558 210.839016 
L 203.824537 210.664795 
L 204.474496 209.271424 
L 205.449435 206.986618 
L 206.099394 205.558047 
L 206.749353 204.509453 
L 207.724292 203.43882 
L 208.69923 202.786205 
L 209.674169 202.400892 
L 210.324128 202.322087 
L 212.274005 202.828917 
L 217.473677 204.085274 
L 220.073514 204.519342 
L 226.248124 205.278426 
L 227.873022 205.747192 
L 228.522981 205.920024 
L 229.17294 206.331397 
L 229.822899 207.267594 
L 230.797838 208.664253 
L 231.772776 209.70445 
L 233.072695 210.723913 
L 234.372613 211.402029 
L 236.32249 212.084461 
L 239.247305 212.78625 
L 241.522162 212.854697 
L 243.472039 213.245052 
L 243.797019 213.726164 
L 244.771957 215.968193 
L 245.421916 217.551086 
L 246.721835 221.475879 
L 247.696773 223.511554 
L 248.996691 225.591051 
L 249.321671 226.027756 
L 249.64665 226.21372 
L 251.921507 226.132624 
L 252.896446 226.257853 
L 253.221425 226.593064 
L 253.871384 227.591464 
L 254.521343 227.9798 
L 255.171302 228.595772 
L 256.146241 229.720502 
L 258.421097 231.441497 
L 259.071057 231.703477 
L 259.721016 232.300548 
L 261.020934 233.996718 
L 261.345913 234.891601 
L 262.320852 238.394206 
L 263.29579 240.870472 
L 264.595708 243.322421 
L 265.895627 245.333089 
L 266.545586 246.017919 
L 267.520524 247.542362 
L 268.495463 250.088813 
L 269.470401 251.521116 
L 270.44534 252.537361 
L 271.420278 255.367299 
L 273.045176 257.15916 
L 274.020115 257.367284 
L 274.670074 257.732271 
L 274.995053 258.016074 
L 275.320033 258.960997 
L 278.569828 274.350944 
L 278.894808 276.119111 
L 279.219787 278.67814 
L 280.519705 292.750901 
L 280.844685 290.833692 
L 281.169664 285.464844 
L 281.494644 277.159361 
L 282.144603 257.781175 
L 282.469582 257.45572 
L 283.119541 267.623946 
L 284.09448 286.444144 
L 284.419459 289.843011 
L 284.744439 291.805726 
L 285.069419 292.977379 
L 285.394398 293.54955 
L 285.719378 292.619301 
L 286.044357 290.9396 
L 286.369337 290.632144 
L 286.694316 290.922366 
L 287.019296 292.205014 
L 287.344275 294.087286 
L 287.669255 294.939747 
L 287.994234 294.736123 
L 288.644193 291.851207 
L 289.944111 285.846264 
L 290.269091 285.542716 
L 290.59407 285.869227 
L 290.91905 287.677814 
L 291.569009 292.037059 
L 292.218968 293.982307 
L 292.543948 294.647184 
L 292.868927 294.124362 
L 293.843866 291.509416 
L 294.168845 291.745607 
L 295.143784 294.90261 
L 295.468763 294.57529 
L 296.118722 291.743847 
L 296.443702 290.481259 
L 297.41864 284.788686 
L 298.393579 280.240239 
L 298.718559 279.218772 
L 299.043538 278.65755 
L 299.368518 278.700506 
L 299.693497 280.080525 
L 300.018477 282.487563 
L 300.993415 293.851015 
L 301.318395 293.736164 
L 301.643374 291.173253 
L 302.293333 288.520479 
L 302.618313 287.740125 
L 303.268272 292.859294 
L 303.593251 289.738691 
L 304.56819 276.172887 
L 305.218149 270.899105 
L 305.868108 267.366023 
L 306.193088 266.760805 
L 306.518067 267.779694 
L 308.142965 280.619599 
L 308.467944 282.259719 
L 308.792924 283.296533 
L 309.117903 283.892656 
L 309.442883 283.861213 
L 309.767862 284.139347 
L 310.417821 283.975759 
L 310.742801 281.543214 
L 311.39276 270.987713 
L 312.042719 265.064285 
L 312.367699 264.922654 
L 313.342637 271.176183 
L 313.667617 274.242337 
L 314.642555 285.594762 
L 315.292514 290.576018 
L 315.942473 294.352944 
L 316.267453 293.818993 
L 317.242391 286.554106 
L 317.567371 284.663903 
L 317.892351 283.434196 
L 318.54231 283.000439 
L 319.517248 280.146882 
L 320.492187 277.091477 
L 320.817166 277.263113 
L 321.142146 278.100623 
L 321.792105 281.095579 
L 322.442064 285.324515 
L 323.417002 293.645301 
L 323.741982 291.688137 
L 324.391941 285.573712 
L 324.716921 283.320684 
L 325.0419 282.634333 
L 325.691859 283.555695 
L 326.666798 287.617044 
L 327.316757 290.600569 
L 327.966716 291.968216 
L 328.616675 293.211034 
L 328.941654 293.092382 
L 329.266634 292.399571 
L 329.591613 292.320292 
L 329.916593 292.780761 
L 330.241572 292.826727 
L 330.566552 292.061845 
L 331.216511 290.008519 
L 332.516429 287.095761 
L 333.166388 284.804507 
L 333.491368 283.154685 
L 334.141327 277.709127 
L 335.116265 267.880763 
L 335.766224 264.185481 
L 336.416183 261.101028 
L 336.741163 261.010509 
L 337.066143 262.342117 
L 338.041081 272.40614 
L 338.366061 275.640105 
L 339.01602 279.645529 
L 339.665979 284.082964 
L 340.965897 289.681975 
L 341.290876 290.552715 
L 341.615856 291.888954 
L 341.940835 294.158013 
L 342.265815 294.157218 
L 342.590794 291.71966 
L 342.915774 290.280723 
L 343.565733 288.909442 
L 344.540672 286.971951 
L 344.865651 286.597636 
L 345.190631 286.979051 
L 345.51561 287.736068 
L 345.84059 288.066071 
L 346.490549 288.085708 
L 346.815528 288.830113 
L 347.465487 291.16809 
L 347.790467 291.486545 
L 348.115446 291.155195 
L 348.765405 289.202349 
L 349.090385 290.150564 
L 349.740344 293.963324 
L 350.065324 293.241687 
L 350.715283 287.925697 
L 351.690221 277.980934 
L 352.66516 259.51765 
L 352.990139 258.909813 
L 353.315119 262.607157 
L 353.965078 272.151177 
L 354.615037 279.111692 
L 355.589975 285.033033 
L 356.564914 289.521106 
L 357.214873 294.008243 
L 357.539853 293.94729 
L 357.864832 291.914807 
L 358.189812 290.621558 
L 358.514791 290.465244 
L 360.139689 293.390008 
L 360.789648 292.594266 
L 361.114627 292.971382 
L 361.764586 294.276159 
L 362.089566 292.461848 
L 363.064505 281.554978 
L 363.714464 276.182239 
L 364.364423 273.881466 
L 365.339361 271.657761 
L 365.664341 271.851062 
L 365.98932 271.341068 
L 366.639279 271.582871 
L 367.939197 265.241965 
L 368.589156 258.879534 
L 368.914136 258.439509 
L 369.239115 260.52421 
L 369.564095 265.647389 
L 370.864013 292.70474 
L 371.188993 292.900912 
L 372.163931 280.332925 
L 372.81389 274.464334 
L 373.13887 272.324647 
L 374.438788 267.4134 
L 375.413726 263.752835 
L 376.063686 262.218465 
L 377.038624 260.703084 
L 377.363604 260.488799 
L 377.688583 260.46863 
L 378.338542 260.825054 
L 378.663522 261.098241 
L 379.313481 262.066857 
L 380.613399 265.171213 
L 383.213235 273.582579 
L 383.863194 276.937001 
L 384.513153 280.706882 
L 385.163112 283.902372 
L 386.138051 288.960014 
L 386.78801 292.278272 
L 387.112989 293.274756 
L 387.762948 294.588215 
L 388.087928 295.220774 
L 388.412907 295.055146 
L 389.387846 294.126768 
L 390.037805 292.884765 
L 390.362785 292.823825 
L 391.337723 294.967606 
L 391.662703 295.225133 
L 391.987682 294.888718 
L 392.637641 290.028821 
L 393.2876 284.250027 
L 394.262539 273.935921 
L 394.587518 272.128846 
L 394.912498 272.228294 
L 395.237477 273.594071 
L 395.562457 276.12066 
L 396.862375 289.122881 
L 397.512334 293.48354 
L 397.837314 294.601946 
L 398.162293 294.280842 
L 398.487273 293.661931 
L 398.487273 293.661931 
" clip-path="url(#paee9bd5213)" style="fill: none; stroke: #2ca02c; stroke-width: 1.5; stroke-linecap: square"/>
   </g>
   <g id="line2d_18">
    <path d="M 73.832727 174.546743 
L 80.982277 189.629662 
L 85.85697 199.369393 
L 90.244193 207.641222 
L 93.981458 214.235311 
L 97.393743 219.827372 
L 100.481048 224.450761 
L 103.893333 229.135561 
L 106.16819 231.961369 
L 108.443047 234.443476 
L 110.717903 236.639347 
L 113.31774 238.843495 
L 117.379984 241.981712 
L 119.492351 243.389672 
L 122.742146 245.169387 
L 138.991122 253.013973 
L 143.215856 255.101617 
L 147.928059 257.48603 
L 150.852875 258.737058 
L 153.77769 260.05188 
L 178.313645 272.398345 
L 181.888419 274.172202 
L 192.287764 278.91602 
L 197.162457 280.892274 
L 202.19964 282.765176 
L 205.449435 284.128829 
L 215.5238 287.705346 
L 222.835839 289.812241 
L 234.372613 292.282443 
L 236.16 292.600868 
L 236.16 292.600868 
" clip-path="url(#paee9bd5213)" style="fill: none; stroke: #d62728; stroke-width: 1.5; stroke-linecap: square"/>
   </g>
   <g id="patch_3">
    <path d="M 57.6 307.584 
L 57.6 41.472 
" style="fill: none; stroke: #000000; stroke-width: 0.8; stroke-linejoin: miter; stroke-linecap: square"/>
   </g>
   <g id="patch_4">
    <path d="M 414.72 307.584 
L 414.72 41.472 
" style="fill: none; stroke: #000000; stroke-width: 0.8; stroke-linejoin: miter; stroke-linecap: square"/>
   </g>
   <g id="patch_5">
    <path d="M 57.6 307.584 
L 414.72 307.584 
" style="fill: none; stroke: #000000; stroke-width: 0.8; stroke-linejoin: miter; stroke-linecap: square"/>
   </g>
   <g id="patch_6">
    <path d="M 57.6 41.472 
L 414.72 41.472 
" style="fill: none; stroke: #000000; stroke-width: 0.8; stroke-linejoin: miter; stroke-linecap: square"/>
   </g>
   <g id="legend_1">
    <g id="patch_7">
     <path d="M 295.355938 108.1845 
L 407.72 108.1845 
Q 409.72 108.1845 409.72 106.1845 
L 409.72 48.472 
Q 409.72 46.472 407.72 46.472 
L 295.355938 46.472 
Q 293.355938 46.472 293.355938 48.472 
L 293.355938 106.1845 
Q 293.355938 108.1845 295.355938 108.1845 
z
" style="fill: #ffffff; opacity: 0.8; stroke: #cccccc; stroke-linejoin: miter"/>
    </g>
    <g id="line2d_19">
     <path d="M 297.355938 54.570438 
L 307.355938 54.570438 
L 317.355938 54.570438 
" style="fill: none; stroke: #1f77b4; stroke-width: 1.5; stroke-linecap: square"/>
    </g>
    <g id="text_17">
     <!-- Deep BSDE -->
     <g transform="translate(325.355938 58.070438)scale(0.1 -0.1)">
      <defs>
       <path id="DejaVuSans-44" d="M 1259 4147 
L 1259 519 
L 2022 519 
Q 2988 519 3436 956 
Q 3884 1394 3884 2338 
Q 3884 3275 3436 3711 
Q 2988 4147 2022 4147 
L 1259 4147 
z
M 628 4666 
L 1925 4666 
Q 3281 4666 3915 4102 
Q 4550 3538 4550 2338 
Q 4550 1131 3912 565 
Q 3275 0 1925 0 
L 628 0 
L 628 4666 
z
" transform="scale(0.015625)"/>
       <path id="DejaVuSans-20" transform="scale(0.015625)"/>
       <path id="DejaVuSans-42" d="M 1259 2228 
L 1259 519 
L 2272 519 
Q 2781 519 3026 730 
Q 3272 941 3272 1375 
Q 3272 1813 3026 2020 
Q 2781 2228 2272 2228 
L 1259 2228 
z
M 1259 4147 
L 1259 2741 
L 2194 2741 
Q 2656 2741 2882 2914 
Q 3109 3088 3109 3444 
Q 3109 3797 2882 3972 
Q 2656 4147 2194 4147 
L 1259 4147 
z
M 628 4666 
L 2241 4666 
Q 2963 4666 3353 4366 
Q 3744 4066 3744 3513 
Q 3744 3084 3544 2831 
Q 3344 2578 2956 2516 
Q 3422 2416 3680 2098 
Q 3938 1781 3938 1306 
Q 3938 681 3513 340 
Q 3088 0 2303 0 
L 628 0 
L 628 4666 
z
" transform="scale(0.015625)"/>
       <path id="DejaVuSans-53" d="M 3425 4513 
L 3425 3897 
Q 3066 4069 2747 4153 
Q 2428 4238 2131 4238 
Q 1616 4238 1336 4038 
Q 1056 3838 1056 3469 
Q 1056 3159 1242 3001 
Q 1428 2844 1947 2747 
L 2328 2669 
Q 3034 2534 3370 2195 
Q 3706 1856 3706 1288 
Q 3706 609 3251 259 
Q 2797 -91 1919 -91 
Q 1588 -91 1214 -16 
Q 841 59 441 206 
L 441 856 
Q 825 641 1194 531 
Q 1563 422 1919 422 
Q 2459 422 2753 634 
Q 3047 847 3047 1241 
Q 3047 1584 2836 1778 
Q 2625 1972 2144 2069 
L 1759 2144 
Q 1053 2284 737 2584 
Q 422 2884 422 3419 
Q 422 4038 858 4394 
Q 1294 4750 2059 4750 
Q 2388 4750 2728 4690 
Q 3069 4631 3425 4513 
z
" transform="scale(0.015625)"/>
      </defs>
      <use xlink:href="#DejaVuSans-44"/>
      <use xlink:href="#DejaVuSans-65" x="77.001953"/>
      <use xlink:href="#DejaVuSans-65" x="138.525391"/>
      <use xlink:href="#DejaVuSans-70" x="200.048828"/>
      <use xlink:href="#DejaVuSans-20" x="263.525391"/>
      <use xlink:href="#DejaVuSans-42" x="295.3125"/>
      <use xlink:href="#DejaVuSans-53" x="362.166016"/>
      <use xlink:href="#DejaVuSans-44" x="425.642578"/>
      <use xlink:href="#DejaVuSans-45" x="502.644531"/>
     </g>
    </g>
    <g id="line2d_20">
     <path d="M 297.355938 69.248563 
L 307.355938 69.248563 
L 317.355938 69.248563 
" style="fill: none; stroke: #ff7f0e; stroke-width: 1.5; stroke-linecap: square"/>
    </g>
    <g id="text_18">
     <!-- Merged -->
     <g transform="translate(325.355938 72.748563)scale(0.1 -0.1)">
      <defs>
       <path id="DejaVuSans-4d" d="M 628 4666 
L 1569 4666 
L 2759 1491 
L 3956 4666 
L 4897 4666 
L 4897 0 
L 4281 0 
L 4281 4097 
L 3078 897 
L 2444 897 
L 1241 4097 
L 1241 0 
L 628 0 
L 628 4666 
z
" transform="scale(0.015625)"/>
       <path id="DejaVuSans-67" d="M 2906 1791 
Q 2906 2416 2648 2759 
Q 2391 3103 1925 3103 
Q 1463 3103 1205 2759 
Q 947 2416 947 1791 
Q 947 1169 1205 825 
Q 1463 481 1925 481 
Q 2391 481 2648 825 
Q 2906 1169 2906 1791 
z
M 3481 434 
Q 3481 -459 3084 -895 
Q 2688 -1331 1869 -1331 
Q 1566 -1331 1297 -1286 
Q 1028 -1241 775 -1147 
L 775 -588 
Q 1028 -725 1275 -790 
Q 1522 -856 1778 -856 
Q 2344 -856 2625 -561 
Q 2906 -266 2906 331 
L 2906 616 
Q 2728 306 2450 153 
Q 2172 0 1784 0 
Q 1141 0 747 490 
Q 353 981 353 1791 
Q 353 2603 747 3093 
Q 1141 3584 1784 3584 
Q 2172 3584 2450 3431 
Q 2728 3278 2906 2969 
L 2906 3500 
L 3481 3500 
L 3481 434 
z
" transform="scale(0.015625)"/>
       <path id="DejaVuSans-64" d="M 2906 2969 
L 2906 4863 
L 3481 4863 
L 3481 0 
L 2906 0 
L 2906 525 
Q 2725 213 2448 61 
Q 2172 -91 1784 -91 
Q 1150 -91 751 415 
Q 353 922 353 1747 
Q 353 2572 751 3078 
Q 1150 3584 1784 3584 
Q 2172 3584 2448 3432 
Q 2725 3281 2906 2969 
z
M 947 1747 
Q 947 1113 1208 752 
Q 1469 391 1925 391 
Q 2381 391 2643 752 
Q 2906 1113 2906 1747 
Q 2906 2381 2643 2742 
Q 2381 3103 1925 3103 
Q 1469 3103 1208 2742 
Q 947 2381 947 1747 
z
" transform="scale(0.015625)"/>
      </defs>
      <use xlink:href="#DejaVuSans-4d"/>
      <use xlink:href="#DejaVuSans-65" x="86.279297"/>
      <use xlink:href="#DejaVuSans-72" x="147.802734"/>
      <use xlink:href="#DejaVuSans-67" x="187.166016"/>
      <use xlink:href="#DejaVuSans-65" x="250.642578"/>
      <use xlink:href="#DejaVuSans-64" x="312.166016"/>
     </g>
    </g>
    <g id="line2d_21">
     <path d="M 297.355938 83.926688 
L 307.355938 83.926688 
L 317.355938 83.926688 
" style="fill: none; stroke: #2ca02c; stroke-width: 1.5; stroke-linecap: square"/>
    </g>
    <g id="text_19">
     <!-- Merged residual -->
     <g transform="translate(325.355938 87.426688)scale(0.1 -0.1)">
      <defs>
       <path id="DejaVuSans-69" d="M 603 3500 
L 1178 3500 
L 1178 0 
L 603 0 
L 603 3500 
z
M 603 4863 
L 1178 4863 
L 1178 4134 
L 603 4134 
L 603 4863 
z
" transform="scale(0.015625)"/>
       <path id="DejaVuSans-75" d="M 544 1381 
L 544 3500 
L 1119 3500 
L 1119 1403 
Q 1119 906 1312 657 
Q 1506 409 1894 409 
Q 2359 409 2629 706 
Q 2900 1003 2900 1516 
L 2900 3500 
L 3475 3500 
L 3475 0 
L 2900 0 
L 2900 538 
Q 2691 219 2414 64 
Q 2138 -91 1772 -91 
Q 1169 -91 856 284 
Q 544 659 544 1381 
z
M 1991 3584 
L 1991 3584 
z
" transform="scale(0.015625)"/>
       <path id="DejaVuSans-61" d="M 2194 1759 
Q 1497 1759 1228 1600 
Q 959 1441 959 1056 
Q 959 750 1161 570 
Q 1363 391 1709 391 
Q 2188 391 2477 730 
Q 2766 1069 2766 1631 
L 2766 1759 
L 2194 1759 
z
M 3341 1997 
L 3341 0 
L 2766 0 
L 2766 531 
Q 2569 213 2275 61 
Q 1981 -91 1556 -91 
Q 1019 -91 701 211 
Q 384 513 384 1019 
Q 384 1609 779 1909 
Q 1175 2209 1959 2209 
L 2766 2209 
L 2766 2266 
Q 2766 2663 2505 2880 
Q 2244 3097 1772 3097 
Q 1472 3097 1187 3025 
Q 903 2953 641 2809 
L 641 3341 
Q 956 3463 1253 3523 
Q 1550 3584 1831 3584 
Q 2591 3584 2966 3190 
Q 3341 2797 3341 1997 
z
" transform="scale(0.015625)"/>
       <path id="DejaVuSans-6c" d="M 603 4863 
L 1178 4863 
L 1178 0 
L 603 0 
L 603 4863 
z
" transform="scale(0.015625)"/>
      </defs>
      <use xlink:href="#DejaVuSans-4d"/>
      <use xlink:href="#DejaVuSans-65" x="86.279297"/>
      <use xlink:href="#DejaVuSans-72" x="147.802734"/>
      <use xlink:href="#DejaVuSans-67" x="187.166016"/>
      <use xlink:href="#DejaVuSans-65" x="250.642578"/>
      <use xlink:href="#DejaVuSans-64" x="312.166016"/>
      <use xlink:href="#DejaVuSans-20" x="375.642578"/>
      <use xlink:href="#DejaVuSans-72" x="407.429688"/>
      <use xlink:href="#DejaVuSans-65" x="446.292969"/>
      <use xlink:href="#DejaVuSans-73" x="507.816406"/>
      <use xlink:href="#DejaVuSans-69" x="559.916016"/>
      <use xlink:href="#DejaVuSans-64" x="587.699219"/>
      <use xlink:href="#DejaVuSans-75" x="651.175781"/>
      <use xlink:href="#DejaVuSans-61" x="714.554688"/>
      <use xlink:href="#DejaVuSans-6c" x="775.833984"/>
     </g>
    </g>
    <g id="line2d_22">
     <path d="M 297.355938 98.604813 
L 307.355938 98.604813 
L 317.355938 98.604813 
" style="fill: none; stroke: #d62728; stroke-width: 1.5; stroke-linecap: square"/>
    </g>
    <g id="text_20">
     <!-- Raissi -->
     <g transform="translate(325.355938 102.104813)scale(0.1 -0.1)">
      <defs>
       <path id="DejaVuSans-52" d="M 2841 2188 
Q 3044 2119 3236 1894 
Q 3428 1669 3622 1275 
L 4263 0 
L 3584 0 
L 2988 1197 
Q 2756 1666 2539 1819 
Q 2322 1972 1947 1972 
L 1259 1972 
L 1259 0 
L 628 0 
L 628 4666 
L 2053 4666 
Q 2853 4666 3247 4331 
Q 3641 3997 3641 3322 
Q 3641 2881 3436 2590 
Q 3231 2300 2841 2188 
z
M 1259 4147 
L 1259 2491 
L 2053 2491 
Q 2509 2491 2742 2702 
Q 2975 2913 2975 3322 
Q 2975 3731 2742 3939 
Q 2509 4147 2053 4147 
L 1259 4147 
z
" transform="scale(0.015625)"/>
      </defs>
      <use xlink:href="#DejaVuSans-52"/>
      <use xlink:href="#DejaVuSans-61" x="67.232422"/>
      <use xlink:href="#DejaVuSans-69" x="128.511719"/>
      <use xlink:href="#DejaVuSans-73" x="156.294922"/>
      <use xlink:href="#DejaVuSans-73" x="208.394531"/>
      <use xlink:href="#DejaVuSans-69" x="260.494141"/>
     </g>
    </g>
   </g>
  </g>
 </g>
 <defs>
  <clipPath id="paee9bd5213">
   <rect x="57.6" y="41.472" width="357.12" height="266.112"/>
  </clipPath>
 </defs>
</svg>
